<svg width="522" height="431" viewBox="0 0 522 431" fill="none" xmlns="http://www.w3.org/2000/svg">
<path d="M46.3333 246.667C54.8657 289.657 64.9268 332.829 67.6667 376.667" stroke="white" stroke-width="3" stroke-linecap="round"/>
<path d="M1.66669 301.333C29.132 266.713 58.0412 232.41 92.4815 204.444C108.644 191.321 127.019 178.662 147.444 173.296C168.252 167.831 182.873 175.207 180.926 198.296C179.245 218.236 169.236 237.068 159.37 254C145.025 278.62 128.27 302.058 111.63 325.148C93.6507 350.095 75.3628 379.46 50.3334 398" stroke="white" stroke-width="3" stroke-linecap="round"/>
<path d="M145 264C156.455 249.472 163.866 230.77 171.296 214.148C185.128 183.204 201.625 148.43 202.185 113.704C202.465 96.3468 198.043 71.5411 175.296 82.3333C160.52 89.3441 150.163 103.265 141.296 116.444C129.47 134.024 118.043 153.476 110.889 173.519C106.546 185.685 104.449 207.637 124.259 203.63C147.265 198.976 166.935 181.019 187.741 171.074C205.943 162.373 227.691 157.799 243.074 174.815C252.691 185.453 255.25 201.079 256.519 214.704C258.146 232.192 257.139 249.917 251.148 266.593C246.142 280.527 230.28 311.128 210.333 302.593C202.587 299.278 199.383 293.211 196.296 285.593C188.17 265.537 186.737 242.226 186.259 220.889C185.295 177.859 191.602 134.091 199.667 91.9259C203.475 72.0138 207.644 51.3604 215.222 32.4444C217.071 27.8295 220.879 18.5809 225.407 26.4074C228.559 31.8552 230.455 39.6499 231.926 45.3704C237.323 66.3641 241.318 87.7135 246.259 108.815C256.793 153.795 270.297 197.807 284.148 241.852C296.494 281.11 308.822 320.36 321.593 359.482C323.195 364.391 325.748 379.01 327 374" stroke="white" stroke-width="3" stroke-linecap="round"/>
<path d="M279 184C286 182.923 286.576 172.663 287.482 167.407C289.049 158.309 289.757 149.46 286.556 140.63C284.596 135.223 280.572 126.215 273.667 125.778C267.23 125.37 269.074 135.511 269.963 138.778C272.019 146.332 277.086 153.408 285.593 153.778C305.021 154.622 304.333 116.099 304.333 103.556C304.333 102.593 304.286 99.7049 304.333 100.667C304.705 108.219 306.253 115.419 309.519 122.296C311.923 127.36 317.456 138.889 324.482 139.185C333.061 139.546 335.133 122.865 335.963 117.704C337.535 107.929 337.61 97.9477 337.667 88.0741C337.691 83.7912 337.765 86.315 338.852 88.8889C344.106 101.326 352.288 112.637 363.667 120" stroke="white" stroke-width="3" stroke-linecap="round"/>
<path d="M309.667 49.3333L321 55.3333" stroke="white" stroke-width="3" stroke-linecap="round"/>
<path d="M356.333 75.3333C363.17 81.985 373.893 82.2948 380.741 74.8519C385.195 70.0102 387.246 63.0298 389.074 56.8889C389.84 54.3167 390.849 43.8034 390.63 53.4074C390.377 64.4774 391.489 75.3453 393.111 86.2963C398.552 123.023 406.731 159.348 415 195.519C422.99 230.467 431.227 264.942 434.333 300.667" stroke="white" stroke-width="3" stroke-linecap="round"/>
<path d="M403 70C410.001 67.7498 412.599 62.7933 416.333 56.3704C421.609 47.297 423.528 34.4735 436 38.037C448.703 41.6665 455.136 30.7814 462.333 21.7778C469.583 12.7092 475.662 6.39393 486.333 2" stroke="white" stroke-width="3" stroke-linecap="round"/>
<path d="M79 428.667C161.161 339.604 248.533 255.193 346.037 182.889C401.224 141.965 459.422 102.725 520.333 70.6667" stroke="white" stroke-width="3" stroke-linecap="round"/>
</svg>
